<svg width="79" height="93" viewBox="0 0 79 93" fill="none" xmlns="http://www.w3.org/2000/svg">
<path d="M39.4999 69.7501C32.9666 69.7501 27.6499 63.4912 27.6499 55.8001C27.6499 48.109 32.9666 41.8501 39.4999 41.8501C46.0332 41.8501 51.3499 48.109 51.3499 55.8001C51.3499 63.4912 46.0332 69.7501 39.4999 69.7501ZM39.4999 46.5001C35.1431 46.5001 31.5999 50.6711 31.5999 55.8001C31.5999 60.9291 35.1431 65.1001 39.4999 65.1001C43.8568 65.1001 47.3999 60.9291 47.3999 55.8001C47.3999 50.6711 43.8568 46.5001 39.4999 46.5001Z" fill="#9A3B3B"/>
<path d="M62.821 9.5604L62.1218 6.27285C61.3753 2.75745 58.3772 0 55.2962 0H23.6962C20.6152 0 17.6211 2.75745 16.8706 6.27285L16.1715 9.5604C13.679 10.3835 11.8423 13.0804 11.8423 16.275V20.925C11.8423 24.0079 13.5487 26.6259 15.9068 27.5466L19.4658 86.2017C19.6949 89.9496 22.4757 93 25.6673 93H53.3173C56.5089 93 59.2897 89.9496 59.5188 86.2017L63.0777 27.5466C65.4359 26.6259 67.1423 24.0079 67.1423 20.925V16.275C67.1423 13.0804 65.3095 10.3835 62.8131 9.5604H62.821ZM23.7002 4.65H55.3002C56.5602 4.65 57.9862 5.9613 58.2903 7.39815L58.6932 9.3H20.3032L20.7061 7.39815C21.0102 5.9613 22.4401 4.65 23.7002 4.65ZM58.8236 32.55H20.1807L19.9003 27.9H59.108L58.8236 32.55ZM56.2837 74.4H22.7206L20.4651 37.2H58.5431L56.2877 74.4H56.2837ZM53.3252 88.35H25.6752C24.5297 88.35 23.4948 87.2154 23.4118 85.8715L22.9971 79.05H55.9993L55.5846 85.8715C55.5016 87.2154 54.4667 88.35 53.3212 88.35H53.3252ZM63.2002 20.925C63.2002 22.2084 62.3154 23.25 61.2252 23.25H17.7752C16.685 23.25 15.8002 22.2084 15.8002 20.925V16.275C15.8002 14.9962 16.685 13.9546 17.7712 13.95H17.7791C17.7791 13.95 17.787 13.95 17.791 13.95H61.2291C62.3193 13.95 63.2041 14.9916 63.2041 16.275L63.2002 20.925Z" fill="#A57053"/>
</svg>
