<svg width="108" height="108" viewBox="0 0 108 108" fill="none" xmlns="http://www.w3.org/2000/svg">
<path d="M76.1836 51.9837V67.2204C76.1836 82.0703 64.1453 94.1087 49.2953 94.1087H40.3326C25.4826 94.1087 13.4443 82.0703 13.4443 67.2204V51.9837C13.4443 50.4986 14.6482 49.2949 16.1332 49.2949H73.4947C74.9799 49.2949 76.1836 50.4986 76.1836 51.9837Z" stroke="#A57053" stroke-width="7.5" stroke-linecap="round" stroke-linejoin="round"/>
<path d="M53.7764 40.3321C53.7764 35.8508 56.9774 31.3694 63.3795 31.3694C70.4507 31.3694 76.1832 25.6368 76.1832 18.5655V15.6846" stroke="#9A3B3B" stroke-width="7.5" stroke-linecap="round" stroke-linejoin="round"/>
<path d="M35.8511 40.3326V38.0919C35.8511 30.6669 41.8702 24.6478 49.2952 24.6478C54.2453 24.6478 58.2579 20.635 58.2579 15.685V13.4443" stroke="#9A3B3B" stroke-width="7.5" stroke-linecap="round" stroke-linejoin="round"/>
<path d="M71.7021 49.2949H82.9056C89.093 49.2949 94.109 54.3109 94.109 60.4984C94.109 66.6858 89.093 71.7018 82.9056 71.7018H76.1835" stroke="#A57053" stroke-width="7.5" stroke-linecap="round" stroke-linejoin="round"/>
</svg>
