<svg width="1920" height="817" viewBox="0 0 1920 817" fill="none" xmlns="http://www.w3.org/2000/svg">
<path fill-rule="evenodd" clip-rule="evenodd" d="M-10 0.127207L69.0984 38.4181C151.361 76.709 312.721 153.291 474.082 153.291C632.279 153.291 793.639 76.709 955 153.291C1116.36 236.255 1277.72 466 1439.08 427.709C1593.84 390.25 1678.44 245.637 1759.06 95.9736C1762.62 89.3566 1767.03 83.23 1772.19 77.7616V77.7616C1825.32 21.4154 1920 59.015 1920 136.46V817H1840.9C1758.64 817 1597.28 817 1439.08 817C1277.72 817 1116.36 817 955 817C793.639 817 632.279 817 474.082 817C312.721 817 151.361 817 69.0984 817H-10V0.127207Z" fill="url(#paint0_linear_466_2)"/>
<defs>
<linearGradient id="paint0_linear_466_2" x1="955" y1="-79" x2="955" y2="817" gradientUnits="userSpaceOnUse">
<stop stop-color="#F4E5DA"/>
<stop offset="1" stop-color="#F9FAFB"/>
</linearGradient>
</defs>
</svg>
