<svg width="108" height="108" fill="none" xmlns="http://www.w3.org/2000/svg"><path d="M76.184 51.984V67.22c0 14.85-12.039 26.889-26.889 26.889h-8.962c-14.85 0-26.889-12.039-26.889-26.889V51.984a2.689 2.689 0 0 1 2.69-2.69h57.36a2.689 2.689 0 0 1 2.69 2.69Z" stroke="#A57053" stroke-width="7.5" stroke-linecap="round" stroke-linejoin="round"/><path d="M53.776 40.332c0-4.481 3.201-8.963 9.603-8.963 7.072 0 12.804-5.732 12.804-12.803v-2.881M35.851 40.333v-2.241c0-7.425 6.02-13.444 13.444-13.444a8.963 8.963 0 0 0 8.963-8.963v-2.24" stroke="#9A3B3B" stroke-width="7.5" stroke-linecap="round" stroke-linejoin="round"/><path d="M71.702 49.295h11.204c6.187 0 11.203 5.016 11.203 11.203 0 6.188-5.016 11.204-11.203 11.204h-6.723" stroke="#A57053" stroke-width="7.5" stroke-linecap="round" stroke-linejoin="round"/></svg>