<svg width="111" height="107" fill="none" xmlns="http://www.w3.org/2000/svg"><g clip-path="url(#a)" fill-rule="evenodd" clip-rule="evenodd"><path d="M80.722 26.401c1.465.396 2.478 1.683 2.484 3.15.038.094.039.15.039.15s-.017 12.573-15.428 24.147c-5.73 4.302-10.764 11.066-12.673 17.659-.373 1.274-1.497 2.21-2.856 2.382-1.36.171-2.694-.454-3.395-1.592-3.938-6.616-7.277-17.419.226-29.988 7.313-12.248 20.668-18.654 31.603-15.908Zm-2.49 4.168c-9.53-1.142-18.875 4.45-24.702 14.2-4.629 7.744-3.736 16.538-1.466 22.354 1.874-5.388 5.526-11.826 12.628-17.16 9.048-6.795 12.567-15.644 13.54-19.394ZM60.594 82.207c-1.509-.401-2.557-1.724-2.564-3.236-.039-.053-.04-.084-.04-.084s.017-12.573 15.428-24.147c5.783-4.343 10.858-11.193 12.726-17.845.353-1.242 1.437-2.16 2.759-2.336 1.32-.176 2.62.424 3.309 1.526 3.996 6.593 7.487 17.492-.096 30.194-7.296 12.219-20.602 18.623-31.522 15.928Zm2.41-4.188c9.529 1.142 18.874-4.45 24.701-14.2 4.629-7.744 3.736-16.538 1.466-22.354-1.874 5.389-5.526 11.827-12.628 17.16-9.048 6.796-12.567 15.644-13.54 19.394Z" fill="#9A3B3B"/><path d="M41.337 81.966c1.503-.018 2.81-.998 3.206-2.398.066-.097.083-.159.083-.159s3.353-12.15-8.432-27.18c-4.367-5.57-7.411-13.329-7.508-20.16-.026-1.336-.87-2.529-2.152-3.036a3.559 3.559 0 0 0-3.74.704c-5.558 5.418-11.618 14.999-7.752 28.961 3.785 13.673 14.985 23.203 26.295 23.268Zm7.841-7.304c1.339.74 2.44 1.051 4.024.79a9.664 9.664 0 0 1-2.606 3.497 1.398 1.398 0 0 1-1.506.113 1.298 1.298 0 0 1-.686-1.3c.043-.84.252-1.84.774-3.1Zm-9.163 2.655c-9.51-1.28-17.037-9.017-20.053-19.892-2.396-8.637.823-16.908 4.573-21.96.366 5.675 2.168 12.807 7.6 19.734 6.92 8.826 7.948 18.253 7.88 22.118Zm3.293-22.53c-.466-.7-.955-1.375-1.461-2.021-11.787-15.032-8.433-27.181-8.433-27.181s.02-.068.05-.18c.396-1.4 1.694-2.388 3.197-2.43 6.7.077 13.367 3.426 18.477 8.993a58.617 58.617 0 0 0-3.379 3.43c-3.647-4.23-8.377-7.001-13.735-7.722-.06 3.583.818 11.948 6.462 20.182-.629 2.181-1.005 4.466-1.178 6.929Z" fill="#A57053"/></g><defs><clipPath id="a"><path fill="#fff" d="M0 0h110.561v106.801H0z"/></clipPath></defs></svg>