<svg width="92" height="108" fill="none" xmlns="http://www.w3.org/2000/svg"><path d="M46 81c-7.608 0-13.8-7.268-13.8-16.2 0-8.931 6.192-16.2 13.8-16.2 7.608 0 13.8 7.268 13.8 16.2C59.8 73.732 53.608 81 46 81Zm0-27c-5.074 0-9.2 4.844-9.2 10.8s4.126 10.8 9.2 10.8c5.074 0 9.2-4.844 9.2-10.8S51.074 54 46 54Z" fill="#9A3B3B"/><path d="m73.158 11.102-.814-3.817C71.474 3.202 67.984 0 64.395 0h-36.8c-3.588 0-7.074 3.202-7.948 7.285l-.815 3.817c-2.902.956-5.041 4.088-5.041 7.798v5.4c0 3.58 1.987 6.62 4.733 7.69l4.145 68.115c.267 4.353 3.505 7.895 7.222 7.895h32.2c3.717 0 6.955-3.542 7.222-7.895l4.144-68.115c2.747-1.07 4.734-4.11 4.734-7.69v-5.4c0-3.71-2.135-6.842-5.042-7.798h.01ZM27.6 5.4h36.8c1.467 0 3.128 1.523 3.482 3.191l.47 2.209H23.643l.47-2.209C24.466 6.923 26.132 5.4 27.6 5.4Zm40.903 32.4H23.501l-.326-5.4h45.66l-.332 5.4Zm-2.958 48.6H26.46l-2.626-43.2h44.344L65.55 86.4h-.005ZM62.1 102.6H29.9c-1.334 0-2.54-1.318-2.636-2.878l-.483-7.922h38.433l-.483 7.922c-.096 1.56-1.302 2.878-2.636 2.878h.005Zm11.5-78.3c0 1.49-1.03 2.7-2.3 2.7H20.7c-1.27 0-2.3-1.21-2.3-2.7v-5.4c0-1.485 1.03-2.695 2.295-2.7H71.305c1.27 0 2.3 1.21 2.3 2.7l-.005 5.4Z" fill="#A57053"/></svg>